<svg aria-roledescription="er" viewBox="0 0 1230.997802734375 730" style="max-width: 1230.997802734375px;" xmlns="http://www.w3.org/2000/svg" width="undefined" id="mermaid-svg" height="undefined"><style>#mermaid-svg{font-family:"trebuchet ms",verdana,arial,sans-serif;font-size:16px;fill:#333;}#mermaid-svg .error-icon{fill:#552222;}#mermaid-svg .error-text{fill:#552222;stroke:#552222;}#mermaid-svg .edge-thickness-normal{stroke-width:2px;}#mermaid-svg .edge-thickness-thick{stroke-width:3.5px;}#mermaid-svg .edge-pattern-solid{stroke-dasharray:0;}#mermaid-svg .edge-pattern-dashed{stroke-dasharray:3;}#mermaid-svg .edge-pattern-dotted{stroke-dasharray:2;}#mermaid-svg .marker{fill:#333333;stroke:#333333;}#mermaid-svg .marker.cross{stroke:#333333;}#mermaid-svg svg{font-family:"trebuchet ms",verdana,arial,sans-serif;font-size:16px;}#mermaid-svg .entityBox{fill:#ECECFF;stroke:#9370DB;}#mermaid-svg .attributeBoxOdd{fill:#ffffff;stroke:#9370DB;}#mermaid-svg .attributeBoxEven{fill:#f2f2f2;stroke:#9370DB;}#mermaid-svg .relationshipLabelBox{fill:hsl(80, 100%, 96.2745098039%);opacity:0.7;background-color:hsl(80, 100%, 96.2745098039%);}#mermaid-svg .relationshipLabelBox rect{opacity:0.5;}#mermaid-svg .relationshipLine{stroke:#333333;}#mermaid-svg .entityTitleText{text-anchor:middle;font-size:18px;fill:#333;}#mermaid-svg :root{--mermaid-font-family:"trebuchet ms",verdana,arial,sans-serif;}</style><g></g><defs><marker orient="auto" markerHeight="18" markerWidth="18" refY="9" refX="0" id="ONLY_ONE_START"><path d="M9,0 L9,18 M15,0 L15,18" fill="none" stroke="gray"></path></marker></defs><defs><marker orient="auto" markerHeight="18" markerWidth="18" refY="9" refX="18" id="ONLY_ONE_END"><path d="M3,0 L3,18 M9,0 L9,18" fill="none" stroke="gray"></path></marker></defs><defs><marker orient="auto" markerHeight="18" markerWidth="30" refY="9" refX="0" id="ZERO_OR_ONE_START"><circle r="6" cy="9" cx="21" fill="white" stroke="gray"></circle><path d="M9,0 L9,18" fill="none" stroke="gray"></path></marker></defs><defs><marker orient="auto" markerHeight="18" markerWidth="30" refY="9" refX="30" id="ZERO_OR_ONE_END"><circle r="6" cy="9" cx="9" fill="white" stroke="gray"></circle><path d="M21,0 L21,18" fill="none" stroke="gray"></path></marker></defs><defs><marker orient="auto" markerHeight="36" markerWidth="45" refY="18" refX="18" id="ONE_OR_MORE_START"><path d="M0,18 Q 18,0 36,18 Q 18,36 0,18 M42,9 L42,27" fill="none" stroke="gray"></path></marker></defs><defs><marker orient="auto" markerHeight="36" markerWidth="45" refY="18" refX="27" id="ONE_OR_MORE_END"><path d="M3,9 L3,27 M9,18 Q27,0 45,18 Q27,36 9,18" fill="none" stroke="gray"></path></marker></defs><defs><marker orient="auto" markerHeight="36" markerWidth="57" refY="18" refX="18" id="ZERO_OR_MORE_START"><circle r="6" cy="18" cx="48" fill="white" stroke="gray"></circle><path d="M0,18 Q18,0 36,18 Q18,36 0,18" fill="none" stroke="gray"></path></marker></defs><defs><marker orient="auto" markerHeight="36" markerWidth="57" refY="18" refX="39" id="ZERO_OR_MORE_END"><circle r="6" cy="18" cx="9" fill="white" stroke="gray"></circle><path d="M21,18 Q39,0 57,18 Q39,36 21,18" fill="none" stroke="gray"></path></marker></defs><path style="stroke: gray; fill: none;" marker-start="url(#ZERO_OR_MORE_START)" marker-end="url(#ONLY_ONE_END)" d="M1107.6832427978516,465L1107.6832427978516,475.1666666666667C1107.6832427978516,485.3333333333333,1107.6832427978516,505.6666666666667,1107.6832427978516,524.1666666666666C1107.6832427978516,542.6666666666666,1107.6832427978516,559.3333333333334,1107.6832427978516,567.6666666666666L1107.6832427978516,576" class="er relationshipLine"></path><path style="stroke: gray; fill: none;" marker-start="url(#ZERO_OR_MORE_START)" marker-end="url(#ONLY_ONE_END)" d="M1002.5138702392578,138.25704124305406L968.0238812764486,156.54753436921172C933.5338923136393,174.83802749536937,864.5539143880209,211.41901374768472,788.8545977274576,248.062360933988C713.1552810668945,284.7057081202913,630.7366256713867,321.4114162405826,589.5272979736328,339.76427030072824L548.3179702758789,358.1171243608739" class="er relationshipLine"></path><path style="stroke: gray; fill: none;" marker-start="url(#ZERO_OR_MORE_START)" marker-end="url(#ONLY_ONE_END)" d="M1106.2443938769882,154L1123.1508686971322,169.66666666666666C1140.057343517276,185.33333333333334,1173.8702931575638,216.66666666666666,1183.4626192966525,242.5C1193.0549454357413,268.3333333333333,1178.426648073631,288.6666666666667,1171.1124993925757,298.8333333333333L1163.7983507115207,309" class="er relationshipLine"></path><path style="stroke: gray; fill: none;" marker-start="url(#ZERO_OR_MORE_START)" marker-end="url(#ONLY_ONE_END)" d="M789.8143768310547,146.95795690072651L764.8143768310547,163.7982974172721C739.8143768310547,180.63863793381768,689.8143768310547,214.3193189669088,649.5649757385254,244.71687205683406C609.3155746459961,275.11442514675934,578.8167724609375,302.2288502935187,563.5673713684082,315.78606286689836L548.3179702758789,329.34327544027803" class="er relationshipLine"></path><path style="stroke: gray; fill: none;" marker-start="url(#ZERO_OR_MORE_START)" marker-end="url(#ONLY_ONE_END)" d="M902.5138702392578,147.066832986538L927.4155057271322,163.88902748878166C952.3171412150065,180.71122199102533,1002.1204121907552,214.35561099551265,1031.1003847739678,241.344472164423C1060.0803573571807,268.3333333333333,1068.2370315478574,288.6666666666667,1072.3153686431958,298.8333333333333L1076.3937057385342,309" class="er relationshipLine"></path><path style="stroke: gray; fill: none;" marker-start="url(#ZERO_OR_MORE_START)" marker-end="url(#ONLY_ONE_END)" d="M577.1148834228516,161.2174319458008L561.5065078735352,175.68119328816735C545.8981323242188,190.14495463053387,514.6813812255859,219.07247731526695,499.07300567626953,241.86957199096682C483.4646301269531,264.6666666666667,483.4646301269531,281.3333333333333,483.4646301269531,289.6666666666667L483.4646301269531,298" class="er relationshipLine"></path><path style="stroke: gray; fill: none;" marker-start="url(#ZERO_OR_MORE_START)" marker-end="url(#ONLY_ONE_END)" d="M689.8143768310547,138.88300912080507L724.1076367696127,157.06917426733756C758.4008967081705,175.25533941387005,826.9874165852865,211.62766970693505,884.6147511800131,245.10517889321451C942.2420857747396,278.58268807949395,988.9102350870768,309.16537615898795,1012.2443097432455,324.4567201987349L1035.578384399414,339.7480642384819" class="er relationshipLine"></path><path style="stroke: gray; fill: none;" marker-start="url(#ZERO_OR_MORE_START)" marker-end="url(#ONLY_ONE_END)" d="M327.11488342285156,187L327.11488342285156,197.16666666666666C327.11488342285156,207.33333333333334,327.11488342285156,227.66666666666666,342.36428451538086,251.390545906713C357.61368560791016,275.11442514675934,388.11248779296875,302.2288502935187,403.36188888549805,315.78606286689836L418.61128997802734,329.34327544027803" class="er relationshipLine"></path><path style="stroke: gray; fill: none;" marker-start="url(#ZERO_OR_MORE_START)" marker-end="url(#ONLY_ONE_END)" d="M95.382568359375,198L95.382568359375,206.33333333333334C95.382568359375,214.66666666666666,95.382568359375,231.33333333333334,149.25402196248373,258.9618951467626C203.12547556559244,286.59045696019183,310.8683827718099,325.1809139203836,364.73983637491864,344.47614240047955L418.61128997802734,363.77137088057543" class="er relationshipLine"></path><g transform="translate(418.61128997802734,298 )" id="entity-User-d3798389-b7c8-468a-b2c3-3ee70dbd65c5"><rect height="178" width="129.70668029785156" y="0" x="0" class="er entityBox"></rect><text style="dominant-baseline: middle; text-anchor: middle; font-size: 12px;" transform="translate(64.85334014892578,12)" y="0" x="0" id="text-entity-User-d3798389-b7c8-468a-b2c3-3ee70dbd65c5" class="er entityLabel">User</text><rect height="22" width="54.095550537109375" y="24" x="0" class="er attributeBoxOdd"></rect><text style="dominant-baseline: middle; font-size: 10.2px;" transform="translate(5,35)" y="0" x="0" id="text-entity-User-d3798389-b7c8-468a-b2c3-3ee70dbd65c5-attr-1-type" class="er entityLabel">Int</text><rect height="22" width="75.61112976074219" y="24" x="54.095550537109375" class="er attributeBoxOdd"></rect><text style="dominant-baseline: middle; font-size: 10.2px;" transform="translate(59.095550537109375,35)" y="0" x="0" id="text-entity-User-d3798389-b7c8-468a-b2c3-3ee70dbd65c5-attr-1-name" class="er entityLabel">id</text><rect height="22" width="54.095550537109375" y="46" x="0" class="er attributeBoxEven"></rect><text style="dominant-baseline: middle; font-size: 10.2px;" transform="translate(5,57)" y="0" x="0" id="text-entity-User-d3798389-b7c8-468a-b2c3-3ee70dbd65c5-attr-2-type" class="er entityLabel">String</text><rect height="22" width="75.61112976074219" y="46" x="54.095550537109375" class="er attributeBoxEven"></rect><text style="dominant-baseline: middle; font-size: 10.2px;" transform="translate(59.095550537109375,57)" y="0" x="0" id="text-entity-User-d3798389-b7c8-468a-b2c3-3ee70dbd65c5-attr-2-name" class="er entityLabel">username</text><rect height="22" width="54.095550537109375" y="68" x="0" class="er attributeBoxOdd"></rect><text style="dominant-baseline: middle; font-size: 10.2px;" transform="translate(5,79)" y="0" x="0" id="text-entity-User-d3798389-b7c8-468a-b2c3-3ee70dbd65c5-attr-3-type" class="er entityLabel">String</text><rect height="22" width="75.61112976074219" y="68" x="54.095550537109375" class="er attributeBoxOdd"></rect><text style="dominant-baseline: middle; font-size: 10.2px;" transform="translate(59.095550537109375,79)" y="0" x="0" id="text-entity-User-d3798389-b7c8-468a-b2c3-3ee70dbd65c5-attr-3-name" class="er entityLabel">email</text><rect height="22" width="54.095550537109375" y="90" x="0" class="er attributeBoxEven"></rect><text style="dominant-baseline: middle; font-size: 10.2px;" transform="translate(5,101)" y="0" x="0" id="text-entity-User-d3798389-b7c8-468a-b2c3-3ee70dbd65c5-attr-4-type" class="er entityLabel">String</text><rect height="22" width="75.61112976074219" y="90" x="54.095550537109375" class="er attributeBoxEven"></rect><text style="dominant-baseline: middle; font-size: 10.2px;" transform="translate(59.095550537109375,101)" y="0" x="0" id="text-entity-User-d3798389-b7c8-468a-b2c3-3ee70dbd65c5-attr-4-name" class="er entityLabel">password</text><rect height="22" width="54.095550537109375" y="112" x="0" class="er attributeBoxOdd"></rect><text style="dominant-baseline: middle; font-size: 10.2px;" transform="translate(5,123)" y="0" x="0" id="text-entity-User-d3798389-b7c8-468a-b2c3-3ee70dbd65c5-attr-5-type" class="er entityLabel">String</text><rect height="22" width="75.61112976074219" y="112" x="54.095550537109375" class="er attributeBoxOdd"></rect><text style="dominant-baseline: middle; font-size: 10.2px;" transform="translate(59.095550537109375,123)" y="0" x="0" id="text-entity-User-d3798389-b7c8-468a-b2c3-3ee70dbd65c5-attr-5-name" class="er entityLabel">walletAddress</text><rect height="22" width="54.095550537109375" y="134" x="0" class="er attributeBoxEven"></rect><text style="dominant-baseline: middle; font-size: 10.2px;" transform="translate(5,145)" y="0" x="0" id="text-entity-User-d3798389-b7c8-468a-b2c3-3ee70dbd65c5-attr-6-type" class="er entityLabel">DateTime</text><rect height="22" width="75.61112976074219" y="134" x="54.095550537109375" class="er attributeBoxEven"></rect><text style="dominant-baseline: middle; font-size: 10.2px;" transform="translate(59.095550537109375,145)" y="0" x="0" id="text-entity-User-d3798389-b7c8-468a-b2c3-3ee70dbd65c5-attr-6-name" class="er entityLabel">createdAt</text><rect height="22" width="54.095550537109375" y="156" x="0" class="er attributeBoxOdd"></rect><text style="dominant-baseline: middle; font-size: 10.2px;" transform="translate(5,167)" y="0" x="0" id="text-entity-User-d3798389-b7c8-468a-b2c3-3ee70dbd65c5-attr-7-type" class="er entityLabel">DateTime</text><rect height="22" width="75.61112976074219" y="156" x="54.095550537109375" class="er attributeBoxOdd"></rect><text style="dominant-baseline: middle; font-size: 10.2px;" transform="translate(59.095550537109375,167)" y="0" x="0" id="text-entity-User-d3798389-b7c8-468a-b2c3-3ee70dbd65c5-attr-7-name" class="er entityLabel">updatedAt</text></g><g transform="translate(1049.9320449829102,576 )" id="entity-GameType-672986ca-2c08-4fba-92c7-d629d3e7503c"><rect height="134" width="115.50239562988281" y="0" x="0" class="er entityBox"></rect><text style="dominant-baseline: middle; text-anchor: middle; font-size: 12px;" transform="translate(57.751197814941406,12)" y="0" x="0" id="text-entity-GameType-672986ca-2c08-4fba-92c7-d629d3e7503c" class="er entityLabel">GameType</text><rect height="22" width="54.095550537109375" y="24" x="0" class="er attributeBoxOdd"></rect><text style="dominant-baseline: middle; font-size: 10.2px;" transform="translate(5,35)" y="0" x="0" id="text-entity-GameType-672986ca-2c08-4fba-92c7-d629d3e7503c-attr-1-type" class="er entityLabel">Int</text><rect height="22" width="61.40684509277344" y="24" x="54.095550537109375" class="er attributeBoxOdd"></rect><text style="dominant-baseline: middle; font-size: 10.2px;" transform="translate(59.095550537109375,35)" y="0" x="0" id="text-entity-GameType-672986ca-2c08-4fba-92c7-d629d3e7503c-attr-1-name" class="er entityLabel">id</text><rect height="22" width="54.095550537109375" y="46" x="0" class="er attributeBoxEven"></rect><text style="dominant-baseline: middle; font-size: 10.2px;" transform="translate(5,57)" y="0" x="0" id="text-entity-GameType-672986ca-2c08-4fba-92c7-d629d3e7503c-attr-2-type" class="er entityLabel">String</text><rect height="22" width="61.40684509277344" y="46" x="54.095550537109375" class="er attributeBoxEven"></rect><text style="dominant-baseline: middle; font-size: 10.2px;" transform="translate(59.095550537109375,57)" y="0" x="0" id="text-entity-GameType-672986ca-2c08-4fba-92c7-d629d3e7503c-attr-2-name" class="er entityLabel">name</text><rect height="22" width="54.095550537109375" y="68" x="0" class="er attributeBoxOdd"></rect><text style="dominant-baseline: middle; font-size: 10.2px;" transform="translate(5,79)" y="0" x="0" id="text-entity-GameType-672986ca-2c08-4fba-92c7-d629d3e7503c-attr-3-type" class="er entityLabel">String</text><rect height="22" width="61.40684509277344" y="68" x="54.095550537109375" class="er attributeBoxOdd"></rect><text style="dominant-baseline: middle; font-size: 10.2px;" transform="translate(59.095550537109375,79)" y="0" x="0" id="text-entity-GameType-672986ca-2c08-4fba-92c7-d629d3e7503c-attr-3-name" class="er entityLabel">description</text><rect height="22" width="54.095550537109375" y="90" x="0" class="er attributeBoxEven"></rect><text style="dominant-baseline: middle; font-size: 10.2px;" transform="translate(5,101)" y="0" x="0" id="text-entity-GameType-672986ca-2c08-4fba-92c7-d629d3e7503c-attr-4-type" class="er entityLabel">DateTime</text><rect height="22" width="61.40684509277344" y="90" x="54.095550537109375" class="er attributeBoxEven"></rect><text style="dominant-baseline: middle; font-size: 10.2px;" transform="translate(59.095550537109375,101)" y="0" x="0" id="text-entity-GameType-672986ca-2c08-4fba-92c7-d629d3e7503c-attr-4-name" class="er entityLabel">createdAt</text><rect height="22" width="54.095550537109375" y="112" x="0" class="er attributeBoxOdd"></rect><text style="dominant-baseline: middle; font-size: 10.2px;" transform="translate(5,123)" y="0" x="0" id="text-entity-GameType-672986ca-2c08-4fba-92c7-d629d3e7503c-attr-5-type" class="er entityLabel">DateTime</text><rect height="22" width="61.40684509277344" y="112" x="54.095550537109375" class="er attributeBoxOdd"></rect><text style="dominant-baseline: middle; font-size: 10.2px;" transform="translate(59.095550537109375,123)" y="0" x="0" id="text-entity-GameType-672986ca-2c08-4fba-92c7-d629d3e7503c-attr-5-name" class="er entityLabel">updatedAt</text></g><g transform="translate(1035.578384399414,309 )" id="entity-Puzzle-be92b7b9-65df-4d59-84af-a28d2775b443"><rect height="156" width="144.209716796875" y="0" x="0" class="er entityBox"></rect><text style="dominant-baseline: middle; text-anchor: middle; font-size: 12px;" transform="translate(72.1048583984375,12)" y="0" x="0" id="text-entity-Puzzle-be92b7b9-65df-4d59-84af-a28d2775b443" class="er entityLabel">Puzzle</text><rect height="22" width="82.80287170410156" y="24" x="0" class="er attributeBoxOdd"></rect><text style="dominant-baseline: middle; font-size: 10.2px;" transform="translate(5,35)" y="0" x="0" id="text-entity-Puzzle-be92b7b9-65df-4d59-84af-a28d2775b443-attr-1-type" class="er entityLabel">Int</text><rect height="22" width="61.40684509277344" y="24" x="82.80287170410156" class="er attributeBoxOdd"></rect><text style="dominant-baseline: middle; font-size: 10.2px;" transform="translate(87.80287170410156,35)" y="0" x="0" id="text-entity-Puzzle-be92b7b9-65df-4d59-84af-a28d2775b443-attr-1-name" class="er entityLabel">id</text><rect height="22" width="82.80287170410156" y="46" x="0" class="er attributeBoxEven"></rect><text style="dominant-baseline: middle; font-size: 10.2px;" transform="translate(5,57)" y="0" x="0" id="text-entity-Puzzle-be92b7b9-65df-4d59-84af-a28d2775b443-attr-2-type" class="er entityLabel">String</text><rect height="22" width="61.40684509277344" y="46" x="82.80287170410156" class="er attributeBoxEven"></rect><text style="dominant-baseline: middle; font-size: 10.2px;" transform="translate(87.80287170410156,57)" y="0" x="0" id="text-entity-Puzzle-be92b7b9-65df-4d59-84af-a28d2775b443-attr-2-name" class="er entityLabel">name</text><rect height="22" width="82.80287170410156" y="68" x="0" class="er attributeBoxOdd"></rect><text style="dominant-baseline: middle; font-size: 10.2px;" transform="translate(5,79)" y="0" x="0" id="text-entity-Puzzle-be92b7b9-65df-4d59-84af-a28d2775b443-attr-3-type" class="er entityLabel">String</text><rect height="22" width="61.40684509277344" y="68" x="82.80287170410156" class="er attributeBoxOdd"></rect><text style="dominant-baseline: middle; font-size: 10.2px;" transform="translate(87.80287170410156,79)" y="0" x="0" id="text-entity-Puzzle-be92b7b9-65df-4d59-84af-a28d2775b443-attr-3-name" class="er entityLabel">description</text><rect height="22" width="82.80287170410156" y="90" x="0" class="er attributeBoxEven"></rect><text style="dominant-baseline: middle; font-size: 10.2px;" transform="translate(5,101)" y="0" x="0" id="text-entity-Puzzle-be92b7b9-65df-4d59-84af-a28d2775b443-attr-4-type" class="er entityLabel">PuzzleDifficulty</text><rect height="22" width="61.40684509277344" y="90" x="82.80287170410156" class="er attributeBoxEven"></rect><text style="dominant-baseline: middle; font-size: 10.2px;" transform="translate(87.80287170410156,101)" y="0" x="0" id="text-entity-Puzzle-be92b7b9-65df-4d59-84af-a28d2775b443-attr-4-name" class="er entityLabel">difficulty</text><rect height="22" width="82.80287170410156" y="112" x="0" class="er attributeBoxOdd"></rect><text style="dominant-baseline: middle; font-size: 10.2px;" transform="translate(5,123)" y="0" x="0" id="text-entity-Puzzle-be92b7b9-65df-4d59-84af-a28d2775b443-attr-5-type" class="er entityLabel">DateTime</text><rect height="22" width="61.40684509277344" y="112" x="82.80287170410156" class="er attributeBoxOdd"></rect><text style="dominant-baseline: middle; font-size: 10.2px;" transform="translate(87.80287170410156,123)" y="0" x="0" id="text-entity-Puzzle-be92b7b9-65df-4d59-84af-a28d2775b443-attr-5-name" class="er entityLabel">createdAt</text><rect height="22" width="82.80287170410156" y="134" x="0" class="er attributeBoxEven"></rect><text style="dominant-baseline: middle; font-size: 10.2px;" transform="translate(5,145)" y="0" x="0" id="text-entity-Puzzle-be92b7b9-65df-4d59-84af-a28d2775b443-attr-6-type" class="er entityLabel">DateTime</text><rect height="22" width="61.40684509277344" y="134" x="82.80287170410156" class="er attributeBoxEven"></rect><text style="dominant-baseline: middle; font-size: 10.2px;" transform="translate(87.80287170410156,145)" y="0" x="0" id="text-entity-Puzzle-be92b7b9-65df-4d59-84af-a28d2775b443-attr-6-name" class="er entityLabel">updatedAt</text></g><g transform="translate(1002.5138702392578,64 )" id="entity-Score-e1a4d4b1-0432-4744-b9ec-2588b3b53c23"><rect height="90" width="110.3387451171875" y="0" x="0" class="er entityBox"></rect><text style="dominant-baseline: middle; text-anchor: middle; font-size: 12px;" transform="translate(55.16937255859375,12)" y="0" x="0" id="text-entity-Score-e1a4d4b1-0432-4744-b9ec-2588b3b53c23" class="er entityLabel">Score</text><rect height="22" width="54.095550537109375" y="24" x="0" class="er attributeBoxOdd"></rect><text style="dominant-baseline: middle; font-size: 10.2px;" transform="translate(5,35)" y="0" x="0" id="text-entity-Score-e1a4d4b1-0432-4744-b9ec-2588b3b53c23-attr-1-type" class="er entityLabel">Int</text><rect height="22" width="56.243194580078125" y="24" x="54.095550537109375" class="er attributeBoxOdd"></rect><text style="dominant-baseline: middle; font-size: 10.2px;" transform="translate(59.095550537109375,35)" y="0" x="0" id="text-entity-Score-e1a4d4b1-0432-4744-b9ec-2588b3b53c23-attr-1-name" class="er entityLabel">id</text><rect height="22" width="54.095550537109375" y="46" x="0" class="er attributeBoxEven"></rect><text style="dominant-baseline: middle; font-size: 10.2px;" transform="translate(5,57)" y="0" x="0" id="text-entity-Score-e1a4d4b1-0432-4744-b9ec-2588b3b53c23-attr-2-type" class="er entityLabel">Int</text><rect height="22" width="56.243194580078125" y="46" x="54.095550537109375" class="er attributeBoxEven"></rect><text style="dominant-baseline: middle; font-size: 10.2px;" transform="translate(59.095550537109375,57)" y="0" x="0" id="text-entity-Score-e1a4d4b1-0432-4744-b9ec-2588b3b53c23-attr-2-name" class="er entityLabel">score</text><rect height="22" width="54.095550537109375" y="68" x="0" class="er attributeBoxOdd"></rect><text style="dominant-baseline: middle; font-size: 10.2px;" transform="translate(5,79)" y="0" x="0" id="text-entity-Score-e1a4d4b1-0432-4744-b9ec-2588b3b53c23-attr-3-type" class="er entityLabel">DateTime</text><rect height="22" width="56.243194580078125" y="68" x="54.095550537109375" class="er attributeBoxOdd"></rect><text style="dominant-baseline: middle; font-size: 10.2px;" transform="translate(59.095550537109375,79)" y="0" x="0" id="text-entity-Score-e1a4d4b1-0432-4744-b9ec-2588b3b53c23-attr-3-name" class="er entityLabel">createdAt</text></g><g transform="translate(789.8143768310547,31 )" id="entity-Try-699c3e0e-14cc-4f4d-a0c9-fcbf37e3fa8c"><rect height="156" width="112.69949340820312" y="0" x="0" class="er entityBox"></rect><text style="dominant-baseline: middle; text-anchor: middle; font-size: 12px;" transform="translate(56.34974670410156,12)" y="0" x="0" id="text-entity-Try-699c3e0e-14cc-4f4d-a0c9-fcbf37e3fa8c" class="er entityLabel">Try</text><rect height="22" width="54.095550537109375" y="24" x="0" class="er attributeBoxOdd"></rect><text style="dominant-baseline: middle; font-size: 10.2px;" transform="translate(5,35)" y="0" x="0" id="text-entity-Try-699c3e0e-14cc-4f4d-a0c9-fcbf37e3fa8c-attr-1-type" class="er entityLabel">Int</text><rect height="22" width="58.60394287109375" y="24" x="54.095550537109375" class="er attributeBoxOdd"></rect><text style="dominant-baseline: middle; font-size: 10.2px;" transform="translate(59.095550537109375,35)" y="0" x="0" id="text-entity-Try-699c3e0e-14cc-4f4d-a0c9-fcbf37e3fa8c-attr-1-name" class="er entityLabel">id</text><rect height="22" width="54.095550537109375" y="46" x="0" class="er attributeBoxEven"></rect><text style="dominant-baseline: middle; font-size: 10.2px;" transform="translate(5,57)" y="0" x="0" id="text-entity-Try-699c3e0e-14cc-4f4d-a0c9-fcbf37e3fa8c-attr-2-type" class="er entityLabel">Int</text><rect height="22" width="58.60394287109375" y="46" x="54.095550537109375" class="er attributeBoxEven"></rect><text style="dominant-baseline: middle; font-size: 10.2px;" transform="translate(59.095550537109375,57)" y="0" x="0" id="text-entity-Try-699c3e0e-14cc-4f4d-a0c9-fcbf37e3fa8c-attr-2-name" class="er entityLabel">tryCount</text><rect height="22" width="54.095550537109375" y="68" x="0" class="er attributeBoxOdd"></rect><text style="dominant-baseline: middle; font-size: 10.2px;" transform="translate(5,79)" y="0" x="0" id="text-entity-Try-699c3e0e-14cc-4f4d-a0c9-fcbf37e3fa8c-attr-3-type" class="er entityLabel">Boolean</text><rect height="22" width="58.60394287109375" y="68" x="54.095550537109375" class="er attributeBoxOdd"></rect><text style="dominant-baseline: middle; font-size: 10.2px;" transform="translate(59.095550537109375,79)" y="0" x="0" id="text-entity-Try-699c3e0e-14cc-4f4d-a0c9-fcbf37e3fa8c-attr-3-name" class="er entityLabel">success</text><rect height="22" width="54.095550537109375" y="90" x="0" class="er attributeBoxEven"></rect><text style="dominant-baseline: middle; font-size: 10.2px;" transform="translate(5,101)" y="0" x="0" id="text-entity-Try-699c3e0e-14cc-4f4d-a0c9-fcbf37e3fa8c-attr-4-type" class="er entityLabel">Int</text><rect height="22" width="58.60394287109375" y="90" x="54.095550537109375" class="er attributeBoxEven"></rect><text style="dominant-baseline: middle; font-size: 10.2px;" transform="translate(59.095550537109375,101)" y="0" x="0" id="text-entity-Try-699c3e0e-14cc-4f4d-a0c9-fcbf37e3fa8c-attr-4-name" class="er entityLabel">timeTaken</text><rect height="22" width="54.095550537109375" y="112" x="0" class="er attributeBoxOdd"></rect><text style="dominant-baseline: middle; font-size: 10.2px;" transform="translate(5,123)" y="0" x="0" id="text-entity-Try-699c3e0e-14cc-4f4d-a0c9-fcbf37e3fa8c-attr-5-type" class="er entityLabel">DateTime</text><rect height="22" width="58.60394287109375" y="112" x="54.095550537109375" class="er attributeBoxOdd"></rect><text style="dominant-baseline: middle; font-size: 10.2px;" transform="translate(59.095550537109375,123)" y="0" x="0" id="text-entity-Try-699c3e0e-14cc-4f4d-a0c9-fcbf37e3fa8c-attr-5-name" class="er entityLabel">createdAt</text><rect height="22" width="54.095550537109375" y="134" x="0" class="er attributeBoxEven"></rect><text style="dominant-baseline: middle; font-size: 10.2px;" transform="translate(5,145)" y="0" x="0" id="text-entity-Try-699c3e0e-14cc-4f4d-a0c9-fcbf37e3fa8c-attr-6-type" class="er entityLabel">DateTime</text><rect height="22" width="58.60394287109375" y="134" x="54.095550537109375" class="er attributeBoxEven"></rect><text style="dominant-baseline: middle; font-size: 10.2px;" transform="translate(59.095550537109375,145)" y="0" x="0" id="text-entity-Try-699c3e0e-14cc-4f4d-a0c9-fcbf37e3fa8c-attr-6-name" class="er entityLabel">updatedAt</text></g><g transform="translate(577.1148834228516,31 )" id="entity-Leaderboard-51379e09-4c7a-4db3-aa3f-624cc7c6fdff"><rect height="156" width="112.69949340820312" y="0" x="0" class="er entityBox"></rect><text style="dominant-baseline: middle; text-anchor: middle; font-size: 12px;" transform="translate(56.34974670410156,12)" y="0" x="0" id="text-entity-Leaderboard-51379e09-4c7a-4db3-aa3f-624cc7c6fdff" class="er entityLabel">Leaderboard</text><rect height="22" width="54.095550537109375" y="24" x="0" class="er attributeBoxOdd"></rect><text style="dominant-baseline: middle; font-size: 10.2px;" transform="translate(5,35)" y="0" x="0" id="text-entity-Leaderboard-51379e09-4c7a-4db3-aa3f-624cc7c6fdff-attr-1-type" class="er entityLabel">Int</text><rect height="22" width="58.60394287109375" y="24" x="54.095550537109375" class="er attributeBoxOdd"></rect><text style="dominant-baseline: middle; font-size: 10.2px;" transform="translate(59.095550537109375,35)" y="0" x="0" id="text-entity-Leaderboard-51379e09-4c7a-4db3-aa3f-624cc7c6fdff-attr-1-name" class="er entityLabel">id</text><rect height="22" width="54.095550537109375" y="46" x="0" class="er attributeBoxEven"></rect><text style="dominant-baseline: middle; font-size: 10.2px;" transform="translate(5,57)" y="0" x="0" id="text-entity-Leaderboard-51379e09-4c7a-4db3-aa3f-624cc7c6fdff-attr-2-type" class="er entityLabel">Int</text><rect height="22" width="58.60394287109375" y="46" x="54.095550537109375" class="er attributeBoxEven"></rect><text style="dominant-baseline: middle; font-size: 10.2px;" transform="translate(59.095550537109375,57)" y="0" x="0" id="text-entity-Leaderboard-51379e09-4c7a-4db3-aa3f-624cc7c6fdff-attr-2-name" class="er entityLabel">score</text><rect height="22" width="54.095550537109375" y="68" x="0" class="er attributeBoxOdd"></rect><text style="dominant-baseline: middle; font-size: 10.2px;" transform="translate(5,79)" y="0" x="0" id="text-entity-Leaderboard-51379e09-4c7a-4db3-aa3f-624cc7c6fdff-attr-3-type" class="er entityLabel">Int</text><rect height="22" width="58.60394287109375" y="68" x="54.095550537109375" class="er attributeBoxOdd"></rect><text style="dominant-baseline: middle; font-size: 10.2px;" transform="translate(59.095550537109375,79)" y="0" x="0" id="text-entity-Leaderboard-51379e09-4c7a-4db3-aa3f-624cc7c6fdff-attr-3-name" class="er entityLabel">week</text><rect height="22" width="54.095550537109375" y="90" x="0" class="er attributeBoxEven"></rect><text style="dominant-baseline: middle; font-size: 10.2px;" transform="translate(5,101)" y="0" x="0" id="text-entity-Leaderboard-51379e09-4c7a-4db3-aa3f-624cc7c6fdff-attr-4-type" class="er entityLabel">Int</text><rect height="22" width="58.60394287109375" y="90" x="54.095550537109375" class="er attributeBoxEven"></rect><text style="dominant-baseline: middle; font-size: 10.2px;" transform="translate(59.095550537109375,101)" y="0" x="0" id="text-entity-Leaderboard-51379e09-4c7a-4db3-aa3f-624cc7c6fdff-attr-4-name" class="er entityLabel">year</text><rect height="22" width="54.095550537109375" y="112" x="0" class="er attributeBoxOdd"></rect><text style="dominant-baseline: middle; font-size: 10.2px;" transform="translate(5,123)" y="0" x="0" id="text-entity-Leaderboard-51379e09-4c7a-4db3-aa3f-624cc7c6fdff-attr-5-type" class="er entityLabel">DateTime</text><rect height="22" width="58.60394287109375" y="112" x="54.095550537109375" class="er attributeBoxOdd"></rect><text style="dominant-baseline: middle; font-size: 10.2px;" transform="translate(59.095550537109375,123)" y="0" x="0" id="text-entity-Leaderboard-51379e09-4c7a-4db3-aa3f-624cc7c6fdff-attr-5-name" class="er entityLabel">createdAt</text><rect height="22" width="54.095550537109375" y="134" x="0" class="er attributeBoxEven"></rect><text style="dominant-baseline: middle; font-size: 10.2px;" transform="translate(5,145)" y="0" x="0" id="text-entity-Leaderboard-51379e09-4c7a-4db3-aa3f-624cc7c6fdff-attr-6-type" class="er entityLabel">DateTime</text><rect height="22" width="58.60394287109375" y="134" x="54.095550537109375" class="er attributeBoxEven"></rect><text style="dominant-baseline: middle; font-size: 10.2px;" transform="translate(59.095550537109375,145)" y="0" x="0" id="text-entity-Leaderboard-51379e09-4c7a-4db3-aa3f-624cc7c6fdff-attr-6-name" class="er entityLabel">updatedAt</text></g><g transform="translate(270.76513671875,31 )" id="entity-Reward-8a70ebf2-8a2f-40d9-a98e-2b3ed1bd035d"><rect height="156" width="112.69949340820312" y="0" x="0" class="er entityBox"></rect><text style="dominant-baseline: middle; text-anchor: middle; font-size: 12px;" transform="translate(56.34974670410156,12)" y="0" x="0" id="text-entity-Reward-8a70ebf2-8a2f-40d9-a98e-2b3ed1bd035d" class="er entityLabel">Reward</text><rect height="22" width="54.095550537109375" y="24" x="0" class="er attributeBoxOdd"></rect><text style="dominant-baseline: middle; font-size: 10.2px;" transform="translate(5,35)" y="0" x="0" id="text-entity-Reward-8a70ebf2-8a2f-40d9-a98e-2b3ed1bd035d-attr-1-type" class="er entityLabel">Int</text><rect height="22" width="58.60394287109375" y="24" x="54.095550537109375" class="er attributeBoxOdd"></rect><text style="dominant-baseline: middle; font-size: 10.2px;" transform="translate(59.095550537109375,35)" y="0" x="0" id="text-entity-Reward-8a70ebf2-8a2f-40d9-a98e-2b3ed1bd035d-attr-1-name" class="er entityLabel">id</text><rect height="22" width="54.095550537109375" y="46" x="0" class="er attributeBoxEven"></rect><text style="dominant-baseline: middle; font-size: 10.2px;" transform="translate(5,57)" y="0" x="0" id="text-entity-Reward-8a70ebf2-8a2f-40d9-a98e-2b3ed1bd035d-attr-2-type" class="er entityLabel">Int</text><rect height="22" width="58.60394287109375" y="46" x="54.095550537109375" class="er attributeBoxEven"></rect><text style="dominant-baseline: middle; font-size: 10.2px;" transform="translate(59.095550537109375,57)" y="0" x="0" id="text-entity-Reward-8a70ebf2-8a2f-40d9-a98e-2b3ed1bd035d-attr-2-name" class="er entityLabel">quAmount</text><rect height="22" width="54.095550537109375" y="68" x="0" class="er attributeBoxOdd"></rect><text style="dominant-baseline: middle; font-size: 10.2px;" transform="translate(5,79)" y="0" x="0" id="text-entity-Reward-8a70ebf2-8a2f-40d9-a98e-2b3ed1bd035d-attr-3-type" class="er entityLabel">Int</text><rect height="22" width="58.60394287109375" y="68" x="54.095550537109375" class="er attributeBoxOdd"></rect><text style="dominant-baseline: middle; font-size: 10.2px;" transform="translate(59.095550537109375,79)" y="0" x="0" id="text-entity-Reward-8a70ebf2-8a2f-40d9-a98e-2b3ed1bd035d-attr-3-name" class="er entityLabel">week</text><rect height="22" width="54.095550537109375" y="90" x="0" class="er attributeBoxEven"></rect><text style="dominant-baseline: middle; font-size: 10.2px;" transform="translate(5,101)" y="0" x="0" id="text-entity-Reward-8a70ebf2-8a2f-40d9-a98e-2b3ed1bd035d-attr-4-type" class="er entityLabel">Int</text><rect height="22" width="58.60394287109375" y="90" x="54.095550537109375" class="er attributeBoxEven"></rect><text style="dominant-baseline: middle; font-size: 10.2px;" transform="translate(59.095550537109375,101)" y="0" x="0" id="text-entity-Reward-8a70ebf2-8a2f-40d9-a98e-2b3ed1bd035d-attr-4-name" class="er entityLabel">year</text><rect height="22" width="54.095550537109375" y="112" x="0" class="er attributeBoxOdd"></rect><text style="dominant-baseline: middle; font-size: 10.2px;" transform="translate(5,123)" y="0" x="0" id="text-entity-Reward-8a70ebf2-8a2f-40d9-a98e-2b3ed1bd035d-attr-5-type" class="er entityLabel">DateTime</text><rect height="22" width="58.60394287109375" y="112" x="54.095550537109375" class="er attributeBoxOdd"></rect><text style="dominant-baseline: middle; font-size: 10.2px;" transform="translate(59.095550537109375,123)" y="0" x="0" id="text-entity-Reward-8a70ebf2-8a2f-40d9-a98e-2b3ed1bd035d-attr-5-name" class="er entityLabel">createdAt</text><rect height="22" width="54.095550537109375" y="134" x="0" class="er attributeBoxEven"></rect><text style="dominant-baseline: middle; font-size: 10.2px;" transform="translate(5,145)" y="0" x="0" id="text-entity-Reward-8a70ebf2-8a2f-40d9-a98e-2b3ed1bd035d-attr-6-type" class="er entityLabel">DateTime</text><rect height="22" width="58.60394287109375" y="134" x="54.095550537109375" class="er attributeBoxEven"></rect><text style="dominant-baseline: middle; font-size: 10.2px;" transform="translate(59.095550537109375,145)" y="0" x="0" id="text-entity-Reward-8a70ebf2-8a2f-40d9-a98e-2b3ed1bd035d-attr-6-name" class="er entityLabel">updatedAt</text></g><g transform="translate(20,20 )" id="entity-Transaction-1e8af855-4350-42a1-a94b-7bf14a1ba7ea"><rect height="178" width="150.76513671875" y="0" x="0" class="er entityBox"></rect><text style="dominant-baseline: middle; text-anchor: middle; font-size: 12px;" transform="translate(75.382568359375,12)" y="0" x="0" id="text-entity-Transaction-1e8af855-4350-42a1-a94b-7bf14a1ba7ea" class="er entityLabel">Transaction</text><rect height="22" width="92.16119384765625" y="24" x="0" class="er attributeBoxOdd"></rect><text style="dominant-baseline: middle; font-size: 10.2px;" transform="translate(5,35)" y="0" x="0" id="text-entity-Transaction-1e8af855-4350-42a1-a94b-7bf14a1ba7ea-attr-1-type" class="er entityLabel">Int</text><rect height="22" width="58.60394287109375" y="24" x="92.16119384765625" class="er attributeBoxOdd"></rect><text style="dominant-baseline: middle; font-size: 10.2px;" transform="translate(97.16119384765625,35)" y="0" x="0" id="text-entity-Transaction-1e8af855-4350-42a1-a94b-7bf14a1ba7ea-attr-1-name" class="er entityLabel">id</text><rect height="22" width="92.16119384765625" y="46" x="0" class="er attributeBoxEven"></rect><text style="dominant-baseline: middle; font-size: 10.2px;" transform="translate(5,57)" y="0" x="0" id="text-entity-Transaction-1e8af855-4350-42a1-a94b-7bf14a1ba7ea-attr-2-type" class="er entityLabel">Float</text><rect height="22" width="58.60394287109375" y="46" x="92.16119384765625" class="er attributeBoxEven"></rect><text style="dominant-baseline: middle; font-size: 10.2px;" transform="translate(97.16119384765625,57)" y="0" x="0" id="text-entity-Transaction-1e8af855-4350-42a1-a94b-7bf14a1ba7ea-attr-2-name" class="er entityLabel">amount</text><rect height="22" width="92.16119384765625" y="68" x="0" class="er attributeBoxOdd"></rect><text style="dominant-baseline: middle; font-size: 10.2px;" transform="translate(5,79)" y="0" x="0" id="text-entity-Transaction-1e8af855-4350-42a1-a94b-7bf14a1ba7ea-attr-3-type" class="er entityLabel">String</text><rect height="22" width="58.60394287109375" y="68" x="92.16119384765625" class="er attributeBoxOdd"></rect><text style="dominant-baseline: middle; font-size: 10.2px;" transform="translate(97.16119384765625,79)" y="0" x="0" id="text-entity-Transaction-1e8af855-4350-42a1-a94b-7bf14a1ba7ea-attr-3-name" class="er entityLabel">txId</text><rect height="22" width="92.16119384765625" y="90" x="0" class="er attributeBoxEven"></rect><text style="dominant-baseline: middle; font-size: 10.2px;" transform="translate(5,101)" y="0" x="0" id="text-entity-Transaction-1e8af855-4350-42a1-a94b-7bf14a1ba7ea-attr-4-type" class="er entityLabel">TransactionType</text><rect height="22" width="58.60394287109375" y="90" x="92.16119384765625" class="er attributeBoxEven"></rect><text style="dominant-baseline: middle; font-size: 10.2px;" transform="translate(97.16119384765625,101)" y="0" x="0" id="text-entity-Transaction-1e8af855-4350-42a1-a94b-7bf14a1ba7ea-attr-4-name" class="er entityLabel">type</text><rect height="22" width="92.16119384765625" y="112" x="0" class="er attributeBoxOdd"></rect><text style="dominant-baseline: middle; font-size: 10.2px;" transform="translate(5,123)" y="0" x="0" id="text-entity-Transaction-1e8af855-4350-42a1-a94b-7bf14a1ba7ea-attr-5-type" class="er entityLabel">TransactionStatus</text><rect height="22" width="58.60394287109375" y="112" x="92.16119384765625" class="er attributeBoxOdd"></rect><text style="dominant-baseline: middle; font-size: 10.2px;" transform="translate(97.16119384765625,123)" y="0" x="0" id="text-entity-Transaction-1e8af855-4350-42a1-a94b-7bf14a1ba7ea-attr-5-name" class="er entityLabel">status</text><rect height="22" width="92.16119384765625" y="134" x="0" class="er attributeBoxEven"></rect><text style="dominant-baseline: middle; font-size: 10.2px;" transform="translate(5,145)" y="0" x="0" id="text-entity-Transaction-1e8af855-4350-42a1-a94b-7bf14a1ba7ea-attr-6-type" class="er entityLabel">DateTime</text><rect height="22" width="58.60394287109375" y="134" x="92.16119384765625" class="er attributeBoxEven"></rect><text style="dominant-baseline: middle; font-size: 10.2px;" transform="translate(97.16119384765625,145)" y="0" x="0" id="text-entity-Transaction-1e8af855-4350-42a1-a94b-7bf14a1ba7ea-attr-6-name" class="er entityLabel">createdAt</text><rect height="22" width="92.16119384765625" y="156" x="0" class="er attributeBoxOdd"></rect><text style="dominant-baseline: middle; font-size: 10.2px;" transform="translate(5,167)" y="0" x="0" id="text-entity-Transaction-1e8af855-4350-42a1-a94b-7bf14a1ba7ea-attr-7-type" class="er entityLabel">DateTime</text><rect height="22" width="58.60394287109375" y="156" x="92.16119384765625" class="er attributeBoxOdd"></rect><text style="dominant-baseline: middle; font-size: 10.2px;" transform="translate(97.16119384765625,167)" y="0" x="0" id="text-entity-Transaction-1e8af855-4350-42a1-a94b-7bf14a1ba7ea-attr-7-name" class="er entityLabel">updatedAt</text></g><rect height="14" width="102.748046875" y="513.5" x="1056.3092041015625" class="er relationshipLabelBox"></rect><text style="text-anchor: middle; dominant-baseline: middle; font-size: 12px;" y="520.5" x="1107.6832275390625" id="rel1" class="er relationshipLabel">GameTypeToPuzzle</text><rect height="14.000015258789062" width="66.45703125" y="246.3349380493164" x="744.6848754882812" class="er relationshipLabelBox"></rect><text style="text-anchor: middle; dominant-baseline: middle; font-size: 12px;" y="253.33494567871094" x="777.9133911132812" id="rel2" class="er relationshipLabel">ScoreToUser</text><rect height="14" width="76.451171875" y="215.67822265625" x="1134.321044921875" class="er relationshipLabelBox"></rect><text style="text-anchor: middle; dominant-baseline: middle; font-size: 12px;" y="222.67822265625" x="1172.546630859375" id="rel3" class="er relationshipLabel">PuzzleToScore</text><rect height="14" width="54.326171875" y="226.088134765625" x="638.0419921875" class="er relationshipLabelBox"></rect><text style="text-anchor: middle; dominant-baseline: middle; font-size: 12px;" y="233.088134765625" x="665.205078125" id="rel4" class="er relationshipLabel">TryToUser</text><rect height="14" width="63.947265625" y="209.5574188232422" x="969.5164184570312" class="er relationshipLabelBox"></rect><text style="text-anchor: middle; dominant-baseline: middle; font-size: 12px;" y="216.5574188232422" x="1001.4900512695312" id="rel5" class="er relationshipLabel">PuzzleToTry</text><rect height="14" width="104.6953125" y="214.22799682617188" x="463.2711181640625" class="er relationshipLabelBox"></rect><text style="text-anchor: middle; dominant-baseline: middle; font-size: 12px;" y="221.22799682617188" x="515.6187744140625" id="rel6" class="er relationshipLabel">LeaderboardToUser</text><rect height="14" width="114.689453125" y="227.21926879882812" x="808.3310546875" class="er relationshipLabelBox"></rect><text style="text-anchor: middle; dominant-baseline: middle; font-size: 12px;" y="234.21926879882812" x="865.67578125" id="rel7" class="er relationshipLabel">LeaderboardToPuzzle</text><rect height="14" width="76.72265625" y="261.14508056640625" x="316.6195068359375" class="er relationshipLabelBox"></rect><text style="text-anchor: middle; dominant-baseline: middle; font-size: 12px;" y="268.14508056640625" x="354.9808349609375" id="rel8" class="er relationshipLabel">RewardToUser</text><rect height="14" width="99.548828125" y="291.991943359375" x="192.11483764648438" class="er relationshipLabelBox"></rect><text style="text-anchor: middle; dominant-baseline: middle; font-size: 12px;" y="298.991943359375" x="241.88925170898438" id="rel9" class="er relationshipLabel">TransactionToUser</text></svg>